<svg xmlns="http://www.w3.org/2000/svg" width="1600" height="900" viewBox="0 0 1600 900">
  <defs>
    <linearGradient id="sky" x1="0" y1="0" x2="0" y2="1">
      <stop offset="0%" stop-color="#8fd3ff"/>
      <stop offset="55%" stop-color="#5eb9f4"/>
      <stop offset="100%" stop-color="#2a8dd9"/>
    </linearGradient>
    <linearGradient id="ground" x1="0" y1="0" x2="0" y2="1">
      <stop offset="0%" stop-color="#5ad16b"/>
      <stop offset="100%" stop-color="#2f9242"/>
    </linearGradient>
    <style>
      .o { stroke:#182030; stroke-width:4; stroke-linecap:round; stroke-linejoin:round; }
      .ui { fill:#111a2e; stroke:#f0f6ff; stroke-width:3; }
      .ui2 { fill:#253554; stroke:#9cc8ff; stroke-width:2; }
      .t { fill:#f5faff; font-family:'Trebuchet MS',Verdana,sans-serif; font-weight:700; }
      .soft { fill:#eaf6ff; font-family:'Trebuchet MS',Verdana,sans-serif; }
    </style>
    <filter id="shadow" x="-30%" y="-30%" width="160%" height="160%">
      <feDropShadow dx="0" dy="6" stdDeviation="6" flood-color="#000000" flood-opacity="0.28"/>
    </filter>
  </defs>

  <rect width="1600" height="900" fill="url(#sky)"/>

  <g opacity="0.65">
    <circle cx="140" cy="130" r="40" fill="#ffffff"/>
    <circle cx="190" cy="140" r="30" fill="#ffffff"/>
    <circle cx="1080" cy="110" r="34" fill="#ffffff"/>
    <circle cx="1122" cy="118" r="25" fill="#ffffff"/>
  </g>

  <polygon class="o" fill="#4ca65e" points="0,620 180,540 360,600 520,520 720,610 920,490 1120,600 1300,530 1500,600 1600,570 1600,900 0,900"/>
  <polygon class="o" fill="url(#ground)" points="0,700 220,640 420,690 630,630 860,700 1080,610 1340,700 1600,650 1600,900 0,900"/>

  <polygon class="o" fill="#d5b06d" points="0,760 280,720 520,760 760,710 1020,760 1260,720 1600,760 1600,900 0,900"/>

  <g filter="url(#shadow)">
    <ellipse class="o" cx="340" cy="635" rx="95" ry="50" fill="#6f7c94"/>
    <rect class="o" x="270" y="590" width="140" height="48" rx="18" fill="#9cb0cc"/>
    <circle class="o" cx="285" cy="642" r="20" fill="#3d4759"/>
    <circle class="o" cx="395" cy="642" r="20" fill="#3d4759"/>
    <rect class="o" x="315" y="578" width="22" height="20" rx="6" fill="#4f5b73"/>
    <rect class="o" x="345" y="574" width="26" height="16" rx="5" fill="#4f5b73"/>
    <circle cx="322" cy="606" r="8" fill="#f6de71" stroke="#182030" stroke-width="3"/>
    <circle cx="356" cy="606" r="8" fill="#f6de71" stroke="#182030" stroke-width="3"/>
  </g>

  <g filter="url(#shadow)">
    <ellipse class="o" cx="1260" cy="600" rx="92" ry="48" fill="#aa6f6f"/>
    <rect class="o" x="1196" y="555" width="132" height="44" rx="16" fill="#df8a8a"/>
    <circle class="o" cx="1211" cy="606" r="19" fill="#4b2d2d"/>
    <circle class="o" cx="1313" cy="606" r="19" fill="#4b2d2d"/>
    <polygon class="o" points="1260,542 1288,500 1308,548" fill="#ffd27d"/>
    <polygon class="o" points="1218,553 1196,518 1229,545" fill="#ffd27d"/>
    <rect class="o" x="1239" y="548" width="30" height="12" rx="5" fill="#633f3f"/>
  </g>

  <g>
    <path d="M 360 585 Q 820 240 1230 560" fill="none" stroke="#fff7bf" stroke-width="5" stroke-dasharray="10 12"/>
    <circle cx="805" cy="323" r="16" fill="#ffe27d" stroke="#182030" stroke-width="4"/>
    <polygon points="805,299 813,316 832,319 818,332 821,350 805,341 789,350 792,332 778,319 797,316" fill="#ffb84a" stroke="#182030" stroke-width="3"/>
  </g>

  <g>
    <rect class="ui" x="30" y="20" width="1540" height="86" rx="18"/>
    <text class="t" x="54" y="54" font-size="28">TURN 12</text>
    <text class="soft" x="54" y="84" font-size="20">TEAM BLUE vs TEAM RED</text>

    <rect class="ui2" x="280" y="38" width="350" height="48" rx="10"/>
    <text class="t" x="298" y="67" font-size="22">WIND</text>
    <line x1="380" y1="62" x2="550" y2="62" stroke="#f0f6ff" stroke-width="4"/>
    <polygon points="550,62 532,52 532,72" fill="#f0f6ff"/>
    <text class="soft" x="563" y="68" font-size="20">16</text>

    <rect class="ui2" x="680" y="38" width="270" height="48" rx="10"/>
    <text class="t" x="698" y="68" font-size="22">ANGLE 72°</text>

    <rect class="ui2" x="980" y="38" width="270" height="48" rx="10"/>
    <text class="t" x="997" y="68" font-size="22">POWER 84%</text>

    <rect class="ui2" x="1280" y="38" width="260" height="48" rx="10"/>
    <text class="t" x="1296" y="68" font-size="22">SHOT: SS READY</text>
  </g>

  <g>
    <rect class="ui" x="30" y="130" width="280" height="250" rx="16"/>
    <text class="t" x="52" y="164" font-size="24">PLAYER INFO</text>

    <text class="soft" x="52" y="198" font-size="20">BlueFox</text>
    <rect class="ui2" x="52" y="208" width="236" height="24" rx="8"/>
    <rect x="56" y="212" width="190" height="16" rx="6" fill="#53dd7a"/>

    <text class="soft" x="52" y="255" font-size="20">Shield</text>
    <rect class="ui2" x="52" y="265" width="236" height="24" rx="8"/>
    <rect x="56" y="269" width="124" height="16" rx="6" fill="#62b8ff"/>

    <text class="soft" x="52" y="312" font-size="20">Delay: 1120</text>
    <text class="soft" x="52" y="340" font-size="20">Item: Dual+</text>
  </g>

  <g>
    <rect class="ui" x="1270" y="130" width="300" height="250" rx="16"/>
    <text class="t" x="1290" y="164" font-size="24">TURN ORDER</text>

    <rect class="ui2" x="1290" y="184" width="260" height="38" rx="8"/>
    <text class="soft" x="1302" y="209" font-size="20">1. BlueFox</text>
    <rect class="ui2" x="1290" y="230" width="260" height="38" rx="8"/>
    <text class="soft" x="1302" y="255" font-size="20">2. RedDrake</text>
    <rect class="ui2" x="1290" y="276" width="260" height="38" rx="8"/>
    <text class="soft" x="1302" y="301" font-size="20">3. NovaCat</text>
    <rect class="ui2" x="1290" y="322" width="260" height="38" rx="8"/>
    <text class="soft" x="1302" y="347" font-size="20">4. MechaPup</text>
  </g>

  <g>
    <rect class="ui" x="290" y="780" width="1020" height="96" rx="20"/>
    <text class="t" x="320" y="816" font-size="22">ITEMS</text>

    <rect class="ui2" x="390" y="798" width="90" height="62" rx="12"/>
    <text class="soft" x="412" y="835" font-size="20">Dual</text>

    <rect class="ui2" x="495" y="798" width="90" height="62" rx="12"/>
    <text class="soft" x="507" y="835" font-size="20">Dual+</text>

    <rect class="ui2" x="600" y="798" width="90" height="62" rx="12"/>
    <text class="soft" x="619" y="835" font-size="20">TP</text>

    <rect class="ui2" x="705" y="798" width="90" height="62" rx="12"/>
    <text class="soft" x="717" y="835" font-size="20">Wind</text>

    <rect class="ui2" x="810" y="798" width="90" height="62" rx="12"/>
    <text class="soft" x="827" y="835" font-size="20">Heal</text>

    <rect class="ui2" x="915" y="798" width="90" height="62" rx="12"/>
    <text class="soft" x="940" y="835" font-size="20">SS</text>

    <rect class="ui2" x="1020" y="798" width="90" height="62" rx="12"/>
    <text class="soft" x="1038" y="835" font-size="20">Shot2</text>

    <rect class="ui2" x="1125" y="798" width="160" height="62" rx="12"/>
    <text class="t" x="1148" y="835" font-size="24">FIRE</text>
  </g>

  <text class="t" x="496" y="140" font-size="38" opacity="0.95">GBOUND-STYLE BATTLEFIELD CONCEPT</text>
  <rect x="3" y="3" width="1594" height="894" fill="none" stroke="#0f1729" stroke-width="6"/>
</svg>
